<?xml version="1.0" encoding="utf-8"?>
<!-- Generator: Adobe Illustrator 21.0.2, SVG Export Plug-In . SVG Version: 6.00 Build 0)  -->
<svg version="1.1" id="Слой_1" xmlns="http://www.w3.org/2000/svg" xmlns:xlink="http://www.w3.org/1999/xlink" x="0px" y="0px"
	 viewBox="0 0 60 75" style="enable-background:new 0 0 60 75;" xml:space="preserve">
<style type="text/css">
	.st0{fill:#6D5779;}
</style>
<title>016-Wallet full</title>
<desc>Created with Sketch.</desc>
<g>
	<g>
		<polygon class="st0" points="50.5,21.4 50.5,15.5 43.7,15.5 46.6,21.4 		"/>
		<polygon class="st0" points="15.5,21.4 34.9,12.6 31,6.7 8.3,21.4 		"/>
		<polygon class="st0" points="43.8,21.4 40.7,12.6 21.2,21.4 		"/>
		<path class="st0" d="M3.8,21.4h0.7l9.9-5.9H3.7c-1.7,0-2.9,1.7-2.9,3.1C0.7,20.2,2.1,21.4,3.8,21.4"/>
		<path class="st0" d="M50.8,46.5c-1.2,0-2.1-1-2.1-2.1c0-1.2,1-2.1,2.1-2.1l0,0c1.2,0,2.1,1,2.1,2.1C52.9,45.6,51.9,46.5,50.8,46.5
			L50.8,46.5z M50.8,39.9c-2.3,0-4.2,2-4.2,4.4s1.9,4.4,4.2,4.4h8.5v-8.8H50.8z"/>
		<path class="st0" d="M44.2,44.6c0-3.4,2.8-6.6,6.2-6.6h6.8V23.3H3.7c-1.2,0-2-0.3-2.9-1v42.9h56.6V50.6l-6.8,0.1
			C47.1,50.7,44.2,48,44.2,44.6"/>
	</g>
</g>
</svg>
