<?xml version="1.0" encoding="utf-8"?>
<!-- Generator: Adobe Illustrator 21.0.2, SVG Export Plug-In . SVG Version: 6.00 Build 0)  -->
<svg version="1.1" id="Слой_1" xmlns="http://www.w3.org/2000/svg" xmlns:xlink="http://www.w3.org/1999/xlink" x="0px" y="0px"
	 viewBox="0 0 60 75" style="enable-background:new 0 0 60 75;" xml:space="preserve">
<style type="text/css">
	.st0{fill:#6D5779;}
</style>
<title>016-Wallet full</title>
<desc>Created with Sketch.</desc>
<title>ic_name_black_48px</title>
<path class="st0" d="M53.1,33.2c-2.4,0-4.5,1.4-5.4,3.6H35l8.9-8.9c2.9,1.4,6.3,0.1,7.7-2.8s0.1-6.3-2.8-7.7
	c-2.9-1.4-6.3-0.1-7.7,2.8c-0.6,1.5-0.8,3.1-0.1,4.6l-8.9,8.9V21.3c2.3-0.9,3.6-3,3.6-5.4c0-3.1-2.5-5.8-5.6-5.8H30
	c-3.1,0-5.8,2.6-5.8,5.8c0,2.4,1.4,4.4,3.6,5.3v12.5L19.1,25c1.3-2.9,0-6.3-2.9-7.7c-2.9-1.3-6.3,0-7.7,2.9s0,6.3,2.9,7.7
	c1.5,0.6,3.1,0.6,4.6,0l8.9,8.9H12.3c-1.1-2.9-4.4-4.3-7.4-3.1c-2.3,0.9-3.8,3-3.8,5.4c0,3.1,2.5,5.8,5.6,5.8h0.1
	c2.4,0,4.5-1.4,5.4-3.5h12.4L15.9,50c-3-1.1-6.3,0.3-7.5,3.3c-1.1,3,0.3,6.3,3.3,7.5c3,1.3,6.3-0.3,7.5-3.3c0.6-1.5,0.5-3.1-0.1-4.6
	L28,44v12.8c-2.3,0.9-3.6,3-3.6,5.4c0,3.1,2.5,5.6,5.6,5.6h0.1c3.1,0,5.8-2.6,5.8-5.8c0-2.4-1.4-4.4-3.6-5.3V44l9,9
	c-1.1,3,0.3,6.3,3.1,7.5c3,1.1,6.3-0.3,7.5-3.1c1.1-3-0.3-6.3-3.1-7.5c-1.5-0.6-3.1-0.5-4.6,0.1l-8.8-8.8h12.5
	c0.9,2.1,3,3.6,5.4,3.5c3.1,0,5.8-2.6,5.8-5.8c0-3.1-2.5-5.8-5.6-5.8C53.2,33.2,53.1,33.2,53.1,33.2z"/>
</svg>
