<?xml version="1.0" encoding="utf-8"?>
<!-- Generator: Adobe Illustrator 21.0.2, SVG Export Plug-In . SVG Version: 6.00 Build 0)  -->
<svg version="1.1" id="Слой_1" xmlns="http://www.w3.org/2000/svg" xmlns:xlink="http://www.w3.org/1999/xlink" x="0px" y="0px"
	 viewBox="0 0 100 125" style="enable-background:new 0 0 100 125;" xml:space="preserve">
<style type="text/css">
	.st0{fill:#6D5779;}
</style>
<path class="st0" d="M87.4,124.9l-4.2-9.3h3.7l-2.6-5.8h-3.8l-3.5-7.9h4.3l-2.6-5.8h-4.5l-3-6.4l14.3-9.2V36.2l-5-8.2l0.3-13.4
	c0,0,0.5-11.5-30.3-11.5S20.1,14.6,20.1,14.6L20.4,28l-5.1,8.3v44.1L29,89.2l-3.1,6.9h-6l-2.6,5.8h5.8l-3.5,7.9h-6l-2.6,5.8h5.8
	l-4.2,9.3h6.5l4.2-9.2h13.4h3.5h36.5L81,125L87.4,124.9L87.4,124.9z M76.8,75.1c0,2.2-1.8,3.9-3.9,3.9c-2.2,0-3.9-1.8-3.9-3.9
	s1.8-3.9,3.9-3.9C75.1,71,76.8,72.8,76.8,75.1z M55,9.8c0,0,13.3,1.5,17.9,6.1v11.9L55,23.6V9.8z M50.4,32.8c3,0,5.4,2.4,5.4,5.4
	s-2.4,5.4-5.4,5.4S45,41.2,45,38.2S47.4,32.8,50.4,32.8z M27,16.1c4.6-4.6,17.9-6.1,17.9-6.1v13.9L27,28.1V16.1z M27,75.1
	c0-2.2,1.8-3.9,3.9-3.9c2.2,0,3.9,1.8,3.9,3.9c0,2.2-1.8,3.9-3.9,3.9S27,77.2,27,75.1z M34.3,91.5h16.1h15.3l2.2,4.6H46.5H38h-5.8
	L34.3,91.5z M40.3,109.7h-3.5H25.9l3.5-7.9h8.4h8.5h24l3.5,7.9H40.3z"/>
</svg>
