<?xml version="1.0" encoding="utf-8"?>
<!-- Generator: Adobe Illustrator 21.0.2, SVG Export Plug-In . SVG Version: 6.00 Build 0)  -->
<svg version="1.1" id="Слой_1" xmlns="http://www.w3.org/2000/svg" xmlns:xlink="http://www.w3.org/1999/xlink" x="0px" y="0px"
	 viewBox="0 0 100 125" style="enable-background:new 0 0 100 125;" xml:space="preserve">
<style type="text/css">
	.st0{fill:#6D5779;}
</style>
<path class="st0" d="M95.9,59c0-25.3-20.6-45.9-45.9-45.9S4.1,33.7,4.1,59c0,14.8,7,27.9,17.9,36.3L12,109l7.1,5.2L29.4,100
	c6.2,3.1,13.2,4.9,20.6,4.9s14.4-1.8,20.6-4.9l10.2,14.2L88,109L78,95.3C88.9,86.9,95.9,73.8,95.9,59z M50,96.1
	c-20.5,0-37.1-16.6-37.1-37.1S29.5,21.9,50,21.9S87.1,38.5,87.1,59S70.5,96.1,50,96.1z M50,26.9c-17.7,0-32.1,14.4-32.1,32.1
	S32.3,91.1,50,91.1S82.1,76.7,82.1,59S67.7,26.9,50,26.9z M46.8,73.2L31.1,61l5.4-6.9l9.3,7.2l15.4-17l6.5,5.9L46.8,73.2z
	 M98.4,23.4L85,9.8L78.7,16l13.4,13.6L98.4,23.4z M21.3,16L15,9.8L1.6,23.4l6.3,6.2L21.3,16z"/>
</svg>
