<?xml version="1.0" encoding="utf-8"?>
<!-- Generator: Adobe Illustrator 21.0.2, SVG Export Plug-In . SVG Version: 6.00 Build 0)  -->
<svg version="1.1" id="Слой_1" xmlns="http://www.w3.org/2000/svg" xmlns:xlink="http://www.w3.org/1999/xlink" x="0px" y="0px"
	 viewBox="0 0 100 125" style="enable-background:new 0 0 100 125;" xml:space="preserve">
<style type="text/css">
	.st0{fill:#6D5779;}
</style>
<title>NounProject1</title>
<path class="st0" d="M16.5,117.9H28V59.4c-2.1,1.6-5,1.3-6.6-0.7c-1-1.3-1.3-2.9-0.7-4.6c-2.4,0.9-5.1-0.3-6-2.6
	c-0.6-1.6-0.3-3.5,0.9-4.7c-2.6,0-4.7-2.2-4.7-4.7c0-1.8,1-3.5,2.6-4.3c-2.4-1-3.4-3.8-2.4-6.2c0.7-1.6,2.4-2.8,4.3-2.8
	c-1.8-1.9-1.5-4.9,0.4-6.6c1.3-1.2,3.1-1.5,4.9-0.9c-0.9-2.4,0.3-5.1,2.6-6c1.6-0.6,3.4-0.3,4.7,0.7c-0.1-2.6,1.9-4.9,4.4-5
	c1.6-0.1,3.1,0.7,4.1,2.1c0.6-2.5,3.1-4.1,5.6-3.5c1.6,0.3,2.8,1.5,3.4,2.9c1.2-2.4,4.1-3.1,6.3-1.9c1.3,0.7,2.4,2.1,2.5,3.7
	c1.8-1.9,4.7-2.1,6.6-0.3c1.2,1.2,1.8,2.8,1.5,4.4c2.2-1.3,5.1-0.6,6.5,1.6c0.9,1.5,0.9,3.2,0,4.7c2.5-0.4,5,1.2,5.6,3.7
	c0.3,1.8-0.3,3.5-1.8,4.7c2.2,0.4,3.7,2.4,3.7,4.6v0.1c0,2.2-1.5,4.1-3.7,4.6l0.1,0.1H50.1c-7.5,0-13.5,6-13.5,13.5v62.1h27.5v-17.6
	h15.1c5.1,0,9.1-4.1,9.3-9.1l0,0V75.7c3.4-0.7,11.8-4,11.5-6.8c-0.3-3.2-9.7-24.1-9.7-24.1C82-2,42.8,2.2,42.8,2.2
	C19.2,2.2,0.1,21.3,0.1,44.8c0,0-2.1,19,16.3,38.8L16.5,117.9z"/>
</svg>
