<?xml version="1.0" encoding="utf-8"?>
<!-- Generator: Adobe Illustrator 21.0.2, SVG Export Plug-In . SVG Version: 6.00 Build 0)  -->
<svg version="1.1" id="Слой_1" xmlns="http://www.w3.org/2000/svg" xmlns:xlink="http://www.w3.org/1999/xlink" x="0px" y="0px"
	 viewBox="0 0 100 125" style="enable-background:new 0 0 100 125;" xml:space="preserve">
<style type="text/css">
	.st0{fill:#6D5779;}
</style>
<g>
	<path class="st0" d="M38.7,59.6c2.9,0.9,7.9,1.5,11.1,1.5s8.3-0.5,11.1-1.5c1.5-0.5,2.6-1.8,2.7-3.5l-1.2-12.3
		c0.2-1.9-1.3-3.6-3.3-3.6h-1.9c-0.3,0-0.5,0.1-0.7,0.3c-1.7,1.6-4.1,2.7-6.6,2.7c-2.6,0-4.9-1-6.6-2.7c-0.2-0.2-0.5-0.3-0.7-0.3
		h-1.9c-1.9,0-3.5,1.6-3.3,3.6L36,56.1C36.1,57.8,37.1,59.1,38.7,59.6z"/>
	<circle class="st0" cx="49.8" cy="33.4" r="7.4"/>
	<path class="st0" d="M23.2,91.1h-1.9c-0.3,0-0.5,0.1-0.7,0.3c-1.7,1.6-4.1,2.7-6.6,2.7s-4.9-1-6.6-2.7c-0.2-0.2-0.5-0.3-0.7-0.3
		H4.6c-1.9,0-3.5,1.6-3.3,3.6l-1.2,12.3c0.1,1.6,1.1,3,2.7,3.5c2.9,0.9,7.9,1.4,11.1,1.4s8.3-0.5,11.1-1.4c1.5-0.5,2.6-1.8,2.7-3.5
		l-1.2-12.3C26.5,92.9,25.1,91.1,23.2,91.1z"/>
	<circle class="st0" cx="13.8" cy="84.3" r="7.4"/>
	<path class="st0" d="M98.8,94.7c0.2-1.9-1.3-3.6-3.3-3.6h-1.9c-0.3,0-0.5,0.1-0.7,0.3c-1.7,1.6-4.1,2.7-6.6,2.7
		c-2.6,0-4.9-1-6.6-2.7c-0.2-0.2-0.5-0.3-0.7-0.3h-1.9c-1.9,0-3.5,1.6-3.3,3.6l-1.2,12.3c0.1,1.6,1.1,3,2.7,3.5
		c2.9,0.9,7.9,1.4,11.1,1.4c3.3,0,8.3-0.5,11.1-1.4c1.5-0.5,2.6-1.8,2.7-3.5L98.8,94.7z"/>
	<circle class="st0" cx="86.2" cy="84.3" r="7.4"/>
	<path class="st0" d="M67.2,93.1l-14.7-8.5V67.7c0-1.5-1.2-2.8-2.8-2.8S47,66.1,47,67.7v16.9l-14.7,8.5c-1.3,0.7-1.7,2.4-1,3.8
		c0.5,0.9,1.4,1.3,2.3,1.3c0.5,0,0.9-0.1,1.3-0.4l14.7-8.5l14.7,8.5c0.4,0.2,0.9,0.4,1.3,0.4c0.9,0,1.8-0.5,2.3-1.3
		C69,95.4,68.6,93.8,67.2,93.1z"/>
</g>
</svg>
