<?xml version="1.0" encoding="utf-8"?>
<!-- Generator: Adobe Illustrator 21.0.2, SVG Export Plug-In . SVG Version: 6.00 Build 0)  -->
<svg version="1.1" id="Слой_1" xmlns="http://www.w3.org/2000/svg" xmlns:xlink="http://www.w3.org/1999/xlink" x="0px" y="0px"
	 viewBox="0 0 1050.5 841.9" style="enable-background:new 0 0 1050.5 841.9;" xml:space="preserve">
<style type="text/css">
	.st0{fill:none;}
	.st1{fill:#6D5779;}
</style>
<title>utlogo</title>
<line class="st0" x1="964.5" y1="420" x2="669.8" y2="125.8"/>
<polygon class="st1" points="650.7,385.5 566.2,385.5 550.8,371.5 592.7,329.5 "/>
<polygon class="st1" points="964.5,420 670.1,125.5 410.1,385.5 493.6,385.5 666.8,212.2 667.8,213.2 875.2,420.6 669.6,627.2 
	612.6,571 500,571 389.2,681 130.1,421.6 388.9,163 505.9,280 524.1,261.4 388.1,126 93.5,420.9 389.1,716.9 530.8,575.3 669,713.4 
	"/>
<polygon class="st1" points="388.4,632.7 176.4,420 389.6,208.7 482.6,301.7 485.8,298.3 388.8,201.7 169.1,420 388.4,639.2 "/>
<polygon class="st1" points="388.4,592.6 216.2,420.7 387.7,248.7 461.9,323 465.5,319.2 388.3,241 209.3,420.7 385,595.5 "/>
<polygon class="st1" points="388.5,550.2 259.4,419.6 387.9,290.6 438.9,343.8 442.5,340.2 387.9,284.2 252.3,419.6 385.4,553.9 "/>
<path class="st1" d="M600.6,486.6l3.5-3.5l18.7,18.6c2.7,2.5,5,5.4,6.8,8.6c1.4,2.4,1.9,5.3,1.4,8.1c-0.6,3-2.1,5.8-4.4,7.9
	c-3.5,3.5-7.1,5.1-11,4.7c-3.9-0.3-8.4-3.1-13.7-8.4l-18.7-18.6l3.5-3.5l18.7,18.6c2.9,2.9,5.3,4.8,7,5.6c1.6,0.8,3.4,1.1,5.2,0.7
	c1.8-0.4,3.5-1.4,4.8-2.8c2.5-2.5,3.6-5,3.3-7.5s-2.5-5.8-6.6-9.9L600.6,486.6z"/>
<path class="st1" d="M647.2,504.5l-32.4-32.2l3.6-3.6l39.3,11.4l-25.5-25.3l3.3-3.4l32.3,32.2l-3.6,3.6l-39.3-11.4l25.5,25.3
	L647.2,504.5z"/>
<path class="st1" d="M676.6,474.9l-32.4-32.2l3.5-3.5l32.4,32.2L676.6,474.9z"/>
<path class="st1" d="M693,458.5l-28.5-28.4l-8.7,8.7l-3.9-3.8l20.9-21l3.8,3.8l-8.7,8.8l28.5,28.4L693,458.5z"/>
<path class="st1" d="M710.8,440.6l-32.4-32.2l19.1-19.2l3.8,3.8l-15.6,15.7l9.9,9.8l14.6-14.7l3.8,3.8l-14.6,14.7l11,11l16.2-16.3
	l3.8,3.8L710.8,440.6z"/>
<path class="st1" d="M742.7,385.8l4.6-2.5c2.9,4.4,4.2,8.5,4.1,12.2c-0.1,3.7-1.7,7.2-4.4,9.8c-2.2,2.3-5,3.9-8.1,4.5
	c-3.4,0.5-6.9,0-10-1.5c-4.1-1.8-7.9-4.4-11-7.7c-3.2-3-5.8-6.6-7.5-10.7c-1.3-3.2-1.7-6.7-1.1-10.1c0.6-3.1,2.2-6,4.4-8.2
	c2.4-2.5,5.6-4,9-4.2c3.4-0.3,7,0.8,10.9,3.1l-2.5,4.4c-5.7-3.3-10.3-3.2-13.8,0.4c-1.7,1.6-2.8,3.7-3.2,6c-0.3,2.5,0.1,5,1.1,7.3
	c1.5,3.2,3.6,6,6.1,8.4c4.4,4.4,8.5,6.9,12.3,7.6c3.5,0.7,7.1-0.4,9.5-2.9c1.9-1.8,2.9-4.4,2.9-7C746.2,392,745,389,742.7,385.8z"/>
<path class="st1" d="M719.2,499.1l-2.8-2.8l8.1-8.1l8.7,8.7c0,2.2-0.4,4.5-1.1,6.6c-0.7,1.9-1.8,3.6-3.2,5c-1.7,1.8-4,3.1-6.4,3.6
	c-2.5,0.5-5.2,0.3-7.6-0.6c-2.9-1.1-5.6-2.9-7.8-5.2c-2.3-2.2-4.2-4.9-5.4-7.9c-1-2.4-1.3-5-0.8-7.6c0.6-2.4,1.8-4.6,3.6-6.3
	c1.2-1.3,2.8-2.3,4.5-2.9c1.5-0.5,3.2-0.7,4.8-0.4c2,0.4,3.8,1.2,5.5,2.4l-1.5,3c-1.3-0.8-2.7-1.5-4.1-1.8c-1.1-0.2-2.3-0.1-3.4,0.3
	c-1.2,0.4-2.3,1.1-3.1,2c-1.3,1.2-2.2,2.8-2.6,4.6c-0.3,1.9,0,3.8,0.7,5.6c1,2.3,2.5,4.4,4.3,6.1c3.1,3.1,6.1,4.8,9,5
	c2.8,0.3,5.5-0.8,7.4-2.8c1-1.1,1.8-2.4,2.3-3.8c0.5-1.3,0.8-2.8,0.8-4.2l-4.4-4.3L719.2,499.1z"/>
<path class="st1" d="M742.1,494.5l-23.4-23.3l8.5-8.5c1.3-1.4,2.8-2.5,4.6-3.3c1.4-0.4,2.9-0.4,4.2,0.1c1.7,0.5,3.1,1.5,4.3,2.7
	c3.5,3,3.9,8.2,1,11.8c0.9-0.3,1.9-0.4,2.9-0.3c1.7,0.1,3.4,0.5,5,1l9.7,3l-3.2,3.2l-7.4-2.3c-2-0.7-4-1.2-6.1-1.6
	c-0.9-0.2-1.9-0.1-2.8,0.1c-0.9,0.4-1.7,0.9-2.3,1.6l-2.9,2.9l10.4,10.4L742.1,494.5z M731.6,478.9l5.4-5.5c1-0.9,1.7-2,2.3-3.1
	c0.3-0.9,0.4-1.9,0.1-2.8c-0.3-1-0.8-2-1.6-2.7c-1-1.1-2.4-1.7-3.8-1.7c-1.6,0.1-3,0.9-4.1,2.1l-6,6.1L731.6,478.9z"/>
<path class="st1" d="M750.3,463.4c-4-4-6.2-7.9-6.6-11.8c-0.5-3.6,0.7-7.2,3.3-9.8c1.6-1.7,3.7-2.8,6-3.2c2.5-0.4,5.1-0.1,7.5,0.8
	c2.9,1.2,5.6,3,7.7,5.3c3.5,3.5,5.5,7.1,6.1,10.8c1.2,6.3-2.9,12.4-9.1,13.6c-1.5,0.3-3.1,0.3-4.6,0
	C756.7,468.4,753.1,466.4,750.3,463.4z M753,460.9c2.9,2.9,5.8,4.5,8.6,4.8c4.4,0.7,8.6-2.3,9.3-6.7c0.1-0.9,0.1-1.8,0-2.7
	c-0.4-2.9-2.1-5.9-5.2-9c-1.8-1.9-4-3.4-6.4-4.4c-1.6-0.7-3.4-0.9-5.2-0.6c-1.7,0.2-3.2,1-4.4,2.2c-1.9,1.9-2.8,4.5-2.3,7.1
	C747.7,454.4,749.6,457.5,753,460.9L753,460.9z"/>
<path class="st1" d="M776.3,413.3l2.5-2.5l13.5,13.5c1.9,1.8,3.6,3.9,4.9,6.2c1,1.8,1.3,3.8,1,5.8c-0.4,2.2-1.5,4.2-3.2,5.7
	c-2.5,2.5-5.2,3.7-7.9,3.4c-2.8-0.2-6.1-2.3-9.9-6.1l-13.5-13.5l2.5-2.5l13.5,13.5c1.5,1.6,3.2,3,5.1,4.1c1.2,0.6,2.5,0.8,3.8,0.5
	c1.3-0.3,2.5-1,3.5-2c1.8-1.8,2.6-3.6,2.4-5.5c-0.2-1.8-1.8-4.2-4.8-7.2L776.3,413.3z"/>
<path class="st1" d="M809.5,426.8L786,403.5l7.2-7.2c1.2-1.3,2.6-2.5,4.2-3.3c1.5-0.7,3.3-0.9,4.9-0.4c1.9,0.5,3.6,1.6,5,3
	c1.9,1.8,3.2,4.2,3.6,6.8c0.3,2.4-0.9,4.9-3.5,7.6l-4.9,4.9l9.5,9.5L809.5,426.8z M799.7,412.1l4.9-5c1.6-1.6,2.3-3.1,2.4-4.5
	c-0.1-1.7-0.9-3.2-2.1-4.3c-0.8-0.8-1.8-1.5-2.9-1.8c-0.9-0.3-1.8-0.3-2.7-0.1c-1.2,0.6-2.2,1.4-3.1,2.4l-4.9,4.9L799.7,412.1z"/>
</svg>
